<svg width="1467" height="218" viewBox="0 0 1467 218" fill="none" xmlns="http://www.w3.org/2000/svg">
<path d="M121.193 84H105.341C104.403 79.4403 102.763 75.4347 100.419 71.983C98.1179 68.5312 95.3054 65.6335 91.9815 63.2898C88.7003 60.9034 85.0568 59.1136 81.0511 57.9205C77.0455 56.7273 72.8693 56.1307 68.5227 56.1307C60.5966 56.1307 53.4162 58.1335 46.9815 62.1392C40.5895 66.1449 35.4972 72.0469 31.7045 79.8452C27.9545 87.6435 26.0795 97.2102 26.0795 108.545C26.0795 119.881 27.9545 129.447 31.7045 137.246C35.4972 145.044 40.5895 150.946 46.9815 154.952C53.4162 158.957 60.5966 160.96 68.5227 160.96C72.8693 160.96 77.0455 160.364 81.0511 159.17C85.0568 157.977 88.7003 156.209 91.9815 153.865C95.3054 151.479 98.1179 148.56 100.419 145.108C102.763 141.614 104.403 137.608 105.341 133.091H121.193C120 139.781 117.827 145.768 114.673 151.053C111.52 156.337 107.599 160.832 102.912 164.54C98.2244 168.205 92.9617 170.996 87.1236 172.913C81.3281 174.831 75.1278 175.79 68.5227 175.79C57.358 175.79 47.429 173.062 38.7358 167.608C30.0426 162.153 23.2031 154.398 18.2173 144.341C13.2315 134.284 10.7386 122.352 10.7386 108.545C10.7386 94.7386 13.2315 82.8068 18.2173 72.75C23.2031 62.6932 30.0426 54.9375 38.7358 49.483C47.429 44.0284 57.358 41.3011 68.5227 41.3011C75.1278 41.3011 81.3281 42.2599 87.1236 44.1776C92.9617 46.0952 98.2244 48.9077 102.912 52.6151C107.599 56.2798 111.52 60.7543 114.673 66.0384C117.827 71.2798 120 77.267 121.193 84ZM173.656 176.301C167.434 176.301 161.788 175.129 156.717 172.786C151.646 170.399 147.619 166.969 144.636 162.494C141.653 157.977 140.162 152.523 140.162 146.131C140.162 140.506 141.27 135.946 143.485 132.452C145.701 128.915 148.663 126.145 152.37 124.142C156.078 122.139 160.169 120.648 164.643 119.668C169.16 118.645 173.699 117.835 178.258 117.239C184.224 116.472 189.061 115.896 192.768 115.513C196.518 115.087 199.245 114.384 200.95 113.403C202.697 112.423 203.571 110.719 203.571 108.29V107.778C203.571 101.472 201.845 96.571 198.393 93.0767C194.984 89.5824 189.806 87.8352 182.86 87.8352C175.659 87.8352 170.012 89.4119 165.922 92.5653C161.831 95.7187 158.954 99.0852 157.292 102.665L142.974 97.5511C145.531 91.5852 148.94 86.9403 153.201 83.6165C157.505 80.25 162.193 77.9062 167.264 76.5852C172.377 75.2216 177.406 74.5398 182.349 74.5398C185.502 74.5398 189.125 74.9233 193.216 75.6903C197.349 76.4148 201.333 77.9276 205.169 80.2287C209.047 82.5298 212.264 86.0028 214.821 90.6477C217.377 95.2926 218.656 101.514 218.656 109.312V174H203.571V160.705H202.804C201.781 162.835 200.076 165.115 197.69 167.544C195.304 169.973 192.129 172.04 188.166 173.744C184.203 175.449 179.366 176.301 173.656 176.301ZM175.957 162.75C181.923 162.75 186.951 161.578 191.042 159.234C195.176 156.891 198.287 153.865 200.375 150.158C202.505 146.45 203.571 142.551 203.571 138.46V124.653C202.931 125.42 201.525 126.124 199.352 126.763C197.221 127.359 194.75 127.892 191.937 128.361C189.167 128.787 186.461 129.17 183.819 129.511C181.22 129.81 179.11 130.065 177.491 130.278C173.571 130.79 169.906 131.621 166.497 132.771C163.13 133.879 160.403 135.562 158.315 137.821C156.27 140.037 155.247 143.062 155.247 146.898C155.247 152.139 157.186 156.102 161.064 158.787C164.984 161.429 169.949 162.75 175.957 162.75ZM261.275 43.0909V174H246.19V43.0909H261.275ZM328.791 176.045C319.586 176.045 311.66 173.872 305.012 169.526C298.365 165.179 293.251 159.192 289.672 151.564C286.092 143.936 284.302 135.222 284.302 125.42C284.302 115.449 286.135 106.649 289.799 99.0213C293.507 91.3509 298.663 85.3636 305.268 81.0597C311.916 76.7131 319.672 74.5398 328.535 74.5398C335.439 74.5398 341.66 75.8182 347.2 78.375C352.74 80.9318 357.278 84.5114 360.815 89.1136C364.352 93.7159 366.547 99.0852 367.399 105.222H352.314C351.163 100.747 348.606 96.7841 344.643 93.3324C340.723 89.8381 335.439 88.0909 328.791 88.0909C322.91 88.0909 317.754 89.625 313.322 92.6932C308.933 95.7187 305.502 100.001 303.031 105.541C300.602 111.038 299.387 117.494 299.387 124.909C299.387 132.494 300.581 139.099 302.967 144.724C305.396 150.349 308.805 154.717 313.194 157.828C317.626 160.939 322.825 162.494 328.791 162.494C332.711 162.494 336.27 161.812 339.466 160.449C342.662 159.085 345.368 157.125 347.583 154.568C349.799 152.011 351.376 148.943 352.314 145.364H367.399C366.547 151.159 364.437 156.379 361.071 161.024C357.747 165.626 353.336 169.291 347.839 172.018C342.385 174.703 336.035 176.045 328.791 176.045ZM451.326 133.858V75.8182H466.412V174H451.326V157.381H450.304C448.002 162.366 444.423 166.607 439.565 170.101C434.707 173.553 428.571 175.278 421.156 175.278C415.02 175.278 409.565 173.936 404.792 171.251C400.02 168.524 396.27 164.433 393.542 158.979C390.815 153.482 389.451 146.557 389.451 138.205V75.8182H404.537V137.182C404.537 144.341 406.539 150.051 410.545 154.312C414.593 158.574 419.75 160.705 426.014 160.705C429.764 160.705 433.578 159.746 437.456 157.828C441.376 155.911 444.657 152.97 447.299 149.007C449.984 145.044 451.326 139.994 451.326 133.858ZM509.126 43.0909V174H494.041V43.0909H509.126ZM565.648 176.301C559.426 176.301 553.78 175.129 548.709 172.786C543.638 170.399 539.611 166.969 536.628 162.494C533.645 157.977 532.154 152.523 532.154 146.131C532.154 140.506 533.262 135.946 535.478 132.452C537.694 128.915 540.655 126.145 544.363 124.142C548.07 122.139 552.161 120.648 556.635 119.668C561.152 118.645 565.691 117.835 570.25 117.239C576.216 116.472 581.053 115.896 584.76 115.513C588.51 115.087 591.238 114.384 592.942 113.403C594.689 112.423 595.563 110.719 595.563 108.29V107.778C595.563 101.472 593.837 96.571 590.385 93.0767C586.976 89.5824 581.799 87.8352 574.853 87.8352C567.651 87.8352 562.005 89.4119 557.914 92.5653C553.823 95.7187 550.946 99.0852 549.284 102.665L534.966 97.5511C537.523 91.5852 540.932 86.9403 545.194 83.6165C549.498 80.25 554.185 77.9062 559.256 76.5852C564.37 75.2216 569.398 74.5398 574.341 74.5398C577.495 74.5398 581.117 74.9233 585.208 75.6903C589.341 76.4148 593.326 77.9276 597.161 80.2287C601.039 82.5298 604.256 86.0028 606.813 90.6477C609.37 95.2926 610.648 101.514 610.648 109.312V174H595.563V160.705H594.796C593.773 162.835 592.069 165.115 589.682 167.544C587.296 169.973 584.121 172.04 580.158 173.744C576.195 175.449 571.358 176.301 565.648 176.301ZM567.949 162.75C573.915 162.75 578.944 161.578 583.034 159.234C587.168 156.891 590.279 153.865 592.367 150.158C594.498 146.45 595.563 142.551 595.563 138.46V124.653C594.924 125.42 593.517 126.124 591.344 126.763C589.213 127.359 586.742 127.892 583.929 128.361C581.159 128.787 578.453 129.17 575.811 129.511C573.212 129.81 571.103 130.065 569.483 130.278C565.563 130.79 561.898 131.621 558.489 132.771C555.123 133.879 552.395 135.562 550.307 137.821C548.262 140.037 547.239 143.062 547.239 146.898C547.239 152.139 549.178 156.102 553.056 158.787C556.976 161.429 561.941 162.75 567.949 162.75ZM675.256 176.045C667.074 176.045 659.851 173.979 653.587 169.845C647.322 165.669 642.422 159.788 638.885 152.203C635.348 144.575 633.58 135.562 633.58 125.165C633.58 114.852 635.348 105.903 638.885 98.3182C642.422 90.733 647.344 84.8736 653.651 80.7401C659.957 76.6065 667.244 74.5398 675.511 74.5398C681.903 74.5398 686.953 75.6051 690.661 77.7358C694.411 79.8239 697.266 82.2102 699.226 84.8949C701.229 87.5369 702.784 89.7102 703.892 91.4148H705.17V43.0909H720.256V174H705.682V158.915H703.892C702.784 160.705 701.207 162.963 699.162 165.69C697.116 168.375 694.197 170.783 690.405 172.913C686.612 175.001 681.563 176.045 675.256 176.045ZM677.301 162.494C683.352 162.494 688.466 160.918 692.642 157.764C696.818 154.568 699.993 150.158 702.166 144.533C704.339 138.865 705.426 132.324 705.426 124.909C705.426 117.58 704.361 111.166 702.23 105.669C700.099 100.129 696.946 95.8253 692.77 92.7571C688.594 89.6463 683.438 88.0909 677.301 88.0909C670.909 88.0909 665.582 89.7315 661.321 93.0128C657.102 96.2514 653.928 100.662 651.797 106.244C649.709 111.784 648.665 118.006 648.665 124.909C648.665 131.898 649.73 138.247 651.861 143.957C654.034 149.625 657.23 154.142 661.449 157.509C665.71 160.832 670.994 162.494 677.301 162.494ZM1168.85 174V127.455H1174.21V144.636H1174.67C1175.06 144.03 1175.61 143.258 1176.31 142.318C1177.02 141.364 1178.03 140.515 1179.35 139.773C1180.68 139.015 1182.49 138.636 1184.76 138.636C1187.7 138.636 1190.29 139.371 1192.53 140.841C1194.78 142.311 1196.53 144.394 1197.78 147.091C1199.04 149.788 1199.67 152.97 1199.67 156.636C1199.67 160.333 1199.04 163.538 1197.78 166.25C1196.53 168.947 1194.78 171.038 1192.56 172.523C1190.33 173.992 1187.76 174.727 1184.85 174.727C1182.61 174.727 1180.81 174.356 1179.46 173.614C1178.12 172.856 1177.08 172 1176.35 171.045C1175.62 170.076 1175.06 169.273 1174.67 168.636H1174.03V174H1168.85ZM1174.12 156.545C1174.12 159.182 1174.51 161.508 1175.28 163.523C1176.06 165.523 1177.18 167.091 1178.67 168.227C1180.15 169.348 1181.97 169.909 1184.12 169.909C1186.37 169.909 1188.24 169.318 1189.74 168.136C1191.25 166.939 1192.39 165.333 1193.15 163.318C1193.92 161.288 1194.31 159.03 1194.31 156.545C1194.31 154.091 1193.93 151.879 1193.17 149.909C1192.43 147.924 1191.3 146.356 1189.78 145.205C1188.28 144.038 1186.4 143.455 1184.12 143.455C1181.94 143.455 1180.11 144.008 1178.62 145.114C1177.14 146.205 1176.02 147.735 1175.26 149.705C1174.5 151.659 1174.12 153.939 1174.12 156.545ZM1210.08 187.091C1209.17 187.091 1208.36 187.015 1207.65 186.864C1206.93 186.727 1206.44 186.591 1206.17 186.455L1207.53 181.727C1208.84 182.061 1209.99 182.182 1210.99 182.091C1211.99 182 1212.87 181.553 1213.65 180.75C1214.43 179.962 1215.15 178.682 1215.81 176.909L1216.81 174.182L1203.9 139.091H1209.71L1219.35 166.909H1219.71L1229.35 139.091H1235.17L1220.35 179.091C1219.68 180.894 1218.86 182.386 1217.87 183.568C1216.89 184.765 1215.75 185.652 1214.44 186.227C1213.15 186.803 1211.7 187.091 1210.08 187.091Z" fill="white"/>
<path d="M752.024 174V43.0909H767.876V101.386H837.678V43.0909H853.53V174H837.678V115.449H767.876V174H752.024ZM923.107 176.045C914.244 176.045 906.467 173.936 899.776 169.717C893.129 165.499 887.93 159.597 884.18 152.011C880.472 144.426 878.619 135.562 878.619 125.42C878.619 115.193 880.472 106.266 884.18 98.6378C887.93 91.0099 893.129 85.0866 899.776 80.8679C906.467 76.6491 914.244 74.5398 923.107 74.5398C931.971 74.5398 939.727 76.6491 946.374 80.8679C953.065 85.0866 958.263 91.0099 961.971 98.6378C965.721 106.266 967.596 115.193 967.596 125.42C967.596 135.562 965.721 144.426 961.971 152.011C958.263 159.597 953.065 165.499 946.374 169.717C939.727 173.936 931.971 176.045 923.107 176.045ZM923.107 162.494C929.84 162.494 935.38 160.768 939.727 157.317C944.073 153.865 947.29 149.327 949.379 143.702C951.467 138.077 952.511 131.983 952.511 125.42C952.511 118.858 951.467 112.743 949.379 107.075C947.29 101.408 944.073 96.8267 939.727 93.3324C935.38 89.8381 929.84 88.0909 923.107 88.0909C916.374 88.0909 910.835 89.8381 906.488 93.3324C902.141 96.8267 898.924 101.408 896.836 107.075C894.748 112.743 893.704 118.858 893.704 125.42C893.704 131.983 894.748 138.077 896.836 143.702C898.924 149.327 902.141 153.865 906.488 157.317C910.835 160.768 916.374 162.494 923.107 162.494ZM990.623 174V75.8182H1005.2V90.6477H1006.22C1008.01 85.7898 1011.25 81.848 1015.94 78.8224C1020.62 75.7969 1025.91 74.2841 1031.79 74.2841C1032.9 74.2841 1034.28 74.3054 1035.94 74.348C1037.6 74.3906 1038.86 74.4545 1039.71 74.5398V89.8807C1039.2 89.7528 1038.03 89.5611 1036.2 89.3054C1034.41 89.0071 1032.51 88.858 1030.51 88.858C1025.74 88.858 1021.48 89.8594 1017.73 91.8622C1014.02 93.8224 1011.08 96.5497 1008.9 100.044C1006.77 103.496 1005.71 107.437 1005.71 111.869V174H990.623ZM1086.49 176.301C1080.27 176.301 1074.62 175.129 1069.55 172.786C1064.48 170.399 1060.45 166.969 1057.47 162.494C1054.49 157.977 1052.99 152.523 1052.99 146.131C1052.99 140.506 1054.1 135.946 1056.32 132.452C1058.53 128.915 1061.5 126.145 1065.2 124.142C1068.91 122.139 1073 120.648 1077.48 119.668C1081.99 118.645 1086.53 117.835 1091.09 117.239C1097.06 116.472 1101.89 115.896 1105.6 115.513C1109.35 115.087 1112.08 114.384 1113.78 113.403C1115.53 112.423 1116.4 110.719 1116.4 108.29V107.778C1116.4 101.472 1114.68 96.571 1111.23 93.0767C1107.82 89.5824 1102.64 87.8352 1095.69 87.8352C1088.49 87.8352 1082.84 89.4119 1078.75 92.5653C1074.66 95.7187 1071.79 99.0852 1070.12 102.665L1055.81 97.5511C1058.36 91.5852 1061.77 86.9403 1066.03 83.6165C1070.34 80.25 1075.02 77.9062 1080.1 76.5852C1085.21 75.2216 1090.24 74.5398 1095.18 74.5398C1098.33 74.5398 1101.96 74.9233 1106.05 75.6903C1110.18 76.4148 1114.17 77.9276 1118 80.2287C1121.88 82.5298 1125.1 86.0028 1127.65 90.6477C1130.21 95.2926 1131.49 101.514 1131.49 109.312V174H1116.4V160.705H1115.64C1114.61 162.835 1112.91 165.115 1110.52 167.544C1108.14 169.973 1104.96 172.04 1101 173.744C1097.03 175.449 1092.2 176.301 1086.49 176.301ZM1088.79 162.75C1094.75 162.75 1099.78 161.578 1103.87 159.234C1108.01 156.891 1111.12 153.865 1113.21 150.158C1115.34 146.45 1116.4 142.551 1116.4 138.46V124.653C1115.76 125.42 1114.36 126.124 1112.18 126.763C1110.05 127.359 1107.58 127.892 1104.77 128.361C1102 128.787 1099.29 129.17 1096.65 129.511C1094.05 129.81 1091.94 130.065 1090.32 130.278C1086.4 130.79 1082.74 131.621 1079.33 132.771C1075.96 133.879 1073.24 135.562 1071.15 137.821C1069.1 140.037 1068.08 143.062 1068.08 146.898C1068.08 152.139 1070.02 156.102 1073.9 158.787C1077.82 161.429 1082.78 162.75 1088.79 162.75Z" fill="#F24E1E"/>
<path d="M1343.7 184.598C1345.2 186.099 1349 188.466 1352.18 185.923C1354.93 183.38 1354.74 180.625 1354.3 179.565L1346.88 157.577C1362.86 159.343 1393.51 163.031 1399.33 162.346C1403.84 161.816 1407.81 160.227 1411.78 157.577C1414.96 155.458 1416.99 151.043 1417.61 149.1L1442.51 53.2026C1443.04 50.2886 1442.73 42.871 1437.22 36.5132C1431.71 30.1553 1422.91 29.6255 1419.2 30.1553C1419.2 30.1553 1285.91 41.8114 1270.85 47.9044C1267.58 49.2289 1263.38 52.9906 1261.05 57.4411C1258.72 61.8916 1258.84 67.4194 1259.2 69.627C1259.2 69.627 1265.29 117.046 1270.85 136.649C1272.21 141.418 1272.44 143.007 1275.36 145.921C1278.8 149.1 1284.72 149.807 1287.54 150.425L1306.09 152.544L1343.7 184.598Z" fill="white"/>
<path d="M1395.36 126.583H1373.61V93.8136L1354.18 126.583H1337.96L1318.56 93.8136V126.583H1296.81V75.1904H1322.64L1346.09 111.899L1369.49 75.1904H1395.36V126.583Z" fill="#111111"/>
</svg>
