<svg width="1156" height="341" viewBox="0 0 1156 341" fill="none" xmlns="http://www.w3.org/2000/svg">
<path d="M121.193 84H105.341C104.403 79.4403 102.763 75.4347 100.419 71.983C98.1179 68.5312 95.3054 65.6335 91.9815 63.2898C88.7003 60.9034 85.0568 59.1136 81.0511 57.9205C77.0455 56.7273 72.8693 56.1307 68.5227 56.1307C60.5966 56.1307 53.4162 58.1335 46.9815 62.1392C40.5895 66.1449 35.4972 72.0469 31.7045 79.8452C27.9545 87.6435 26.0795 97.2102 26.0795 108.545C26.0795 119.881 27.9545 129.447 31.7045 137.246C35.4972 145.044 40.5895 150.946 46.9815 154.952C53.4162 158.957 60.5966 160.96 68.5227 160.96C72.8693 160.96 77.0455 160.364 81.0511 159.17C85.0568 157.977 88.7003 156.209 91.9815 153.865C95.3054 151.479 98.1179 148.56 100.419 145.108C102.763 141.614 104.403 137.608 105.341 133.091H121.193C120 139.781 117.827 145.768 114.673 151.053C111.52 156.337 107.599 160.832 102.912 164.54C98.2244 168.205 92.9617 170.996 87.1236 172.913C81.3281 174.831 75.1278 175.79 68.5227 175.79C57.358 175.79 47.429 173.062 38.7358 167.608C30.0426 162.153 23.2031 154.398 18.2173 144.341C13.2315 134.284 10.7386 122.352 10.7386 108.545C10.7386 94.7386 13.2315 82.8068 18.2173 72.75C23.2031 62.6932 30.0426 54.9375 38.7358 49.483C47.429 44.0284 57.358 41.3011 68.5227 41.3011C75.1278 41.3011 81.3281 42.2599 87.1236 44.1776C92.9617 46.0952 98.2244 48.9077 102.912 52.6151C107.599 56.2798 111.52 60.7543 114.673 66.0384C117.827 71.2798 120 77.267 121.193 84ZM173.656 176.301C167.434 176.301 161.788 175.129 156.717 172.786C151.646 170.399 147.619 166.969 144.636 162.494C141.653 157.977 140.162 152.523 140.162 146.131C140.162 140.506 141.27 135.946 143.485 132.452C145.701 128.915 148.663 126.145 152.37 124.142C156.078 122.139 160.169 120.648 164.643 119.668C169.16 118.645 173.699 117.835 178.258 117.239C184.224 116.472 189.061 115.896 192.768 115.513C196.518 115.087 199.245 114.384 200.95 113.403C202.697 112.423 203.571 110.719 203.571 108.29V107.778C203.571 101.472 201.845 96.571 198.393 93.0767C194.984 89.5824 189.806 87.8352 182.86 87.8352C175.659 87.8352 170.012 89.4119 165.922 92.5653C161.831 95.7187 158.954 99.0852 157.292 102.665L142.974 97.5511C145.531 91.5852 148.94 86.9403 153.201 83.6165C157.505 80.25 162.193 77.9062 167.264 76.5852C172.377 75.2216 177.406 74.5398 182.349 74.5398C185.502 74.5398 189.125 74.9233 193.216 75.6903C197.349 76.4148 201.333 77.9276 205.169 80.2287C209.047 82.5298 212.264 86.0028 214.821 90.6477C217.377 95.2926 218.656 101.514 218.656 109.312V174H203.571V160.705H202.804C201.781 162.835 200.076 165.115 197.69 167.544C195.304 169.973 192.129 172.04 188.166 173.744C184.203 175.449 179.366 176.301 173.656 176.301ZM175.957 162.75C181.923 162.75 186.951 161.578 191.042 159.234C195.176 156.891 198.287 153.865 200.375 150.158C202.505 146.45 203.571 142.551 203.571 138.46V124.653C202.931 125.42 201.525 126.124 199.352 126.763C197.221 127.359 194.75 127.892 191.937 128.361C189.167 128.787 186.461 129.17 183.819 129.511C181.22 129.81 179.11 130.065 177.491 130.278C173.571 130.79 169.906 131.621 166.497 132.771C163.13 133.879 160.403 135.562 158.315 137.821C156.27 140.037 155.247 143.062 155.247 146.898C155.247 152.139 157.186 156.102 161.064 158.787C164.984 161.429 169.949 162.75 175.957 162.75ZM261.275 43.0909V174H246.19V43.0909H261.275ZM328.791 176.045C319.586 176.045 311.66 173.872 305.012 169.526C298.365 165.179 293.251 159.192 289.672 151.564C286.092 143.936 284.302 135.222 284.302 125.42C284.302 115.449 286.135 106.649 289.799 99.0213C293.507 91.3509 298.663 85.3636 305.268 81.0597C311.916 76.7131 319.672 74.5398 328.535 74.5398C335.439 74.5398 341.66 75.8182 347.2 78.375C352.74 80.9318 357.278 84.5114 360.815 89.1136C364.352 93.7159 366.547 99.0852 367.399 105.222H352.314C351.163 100.747 348.606 96.7841 344.643 93.3324C340.723 89.8381 335.439 88.0909 328.791 88.0909C322.91 88.0909 317.754 89.625 313.322 92.6932C308.933 95.7187 305.502 100.001 303.031 105.541C300.602 111.038 299.387 117.494 299.387 124.909C299.387 132.494 300.581 139.099 302.967 144.724C305.396 150.349 308.805 154.717 313.194 157.828C317.626 160.939 322.825 162.494 328.791 162.494C332.711 162.494 336.27 161.812 339.466 160.449C342.662 159.085 345.368 157.125 347.583 154.568C349.799 152.011 351.376 148.943 352.314 145.364H367.399C366.547 151.159 364.437 156.379 361.071 161.024C357.747 165.626 353.336 169.291 347.839 172.018C342.385 174.703 336.035 176.045 328.791 176.045ZM451.326 133.858V75.8182H466.412V174H451.326V157.381H450.304C448.002 162.366 444.423 166.607 439.565 170.101C434.707 173.553 428.571 175.278 421.156 175.278C415.02 175.278 409.565 173.936 404.792 171.251C400.02 168.524 396.27 164.433 393.542 158.979C390.815 153.482 389.451 146.557 389.451 138.205V75.8182H404.537V137.182C404.537 144.341 406.539 150.051 410.545 154.312C414.593 158.574 419.75 160.705 426.014 160.705C429.764 160.705 433.578 159.746 437.456 157.828C441.376 155.911 444.657 152.97 447.299 149.007C449.984 145.044 451.326 139.994 451.326 133.858ZM509.126 43.0909V174H494.041V43.0909H509.126ZM565.648 176.301C559.426 176.301 553.78 175.129 548.709 172.786C543.638 170.399 539.611 166.969 536.628 162.494C533.645 157.977 532.154 152.523 532.154 146.131C532.154 140.506 533.262 135.946 535.478 132.452C537.694 128.915 540.655 126.145 544.363 124.142C548.07 122.139 552.161 120.648 556.635 119.668C561.152 118.645 565.691 117.835 570.25 117.239C576.216 116.472 581.053 115.896 584.76 115.513C588.51 115.087 591.238 114.384 592.942 113.403C594.689 112.423 595.563 110.719 595.563 108.29V107.778C595.563 101.472 593.837 96.571 590.385 93.0767C586.976 89.5824 581.799 87.8352 574.853 87.8352C567.651 87.8352 562.005 89.4119 557.914 92.5653C553.823 95.7187 550.946 99.0852 549.284 102.665L534.966 97.5511C537.523 91.5852 540.932 86.9403 545.194 83.6165C549.498 80.25 554.185 77.9062 559.256 76.5852C564.37 75.2216 569.398 74.5398 574.341 74.5398C577.495 74.5398 581.117 74.9233 585.208 75.6903C589.341 76.4148 593.326 77.9276 597.161 80.2287C601.039 82.5298 604.256 86.0028 606.813 90.6477C609.37 95.2926 610.648 101.514 610.648 109.312V174H595.563V160.705H594.796C593.773 162.835 592.069 165.115 589.682 167.544C587.296 169.973 584.121 172.04 580.158 173.744C576.195 175.449 571.358 176.301 565.648 176.301ZM567.949 162.75C573.915 162.75 578.944 161.578 583.034 159.234C587.168 156.891 590.279 153.865 592.367 150.158C594.498 146.45 595.563 142.551 595.563 138.46V124.653C594.924 125.42 593.517 126.124 591.344 126.763C589.213 127.359 586.742 127.892 583.929 128.361C581.159 128.787 578.453 129.17 575.811 129.511C573.212 129.81 571.103 130.065 569.483 130.278C565.563 130.79 561.898 131.621 558.489 132.771C555.123 133.879 552.395 135.562 550.307 137.821C548.262 140.037 547.239 143.062 547.239 146.898C547.239 152.139 549.178 156.102 553.056 158.787C556.976 161.429 561.941 162.75 567.949 162.75ZM675.256 176.045C667.074 176.045 659.851 173.979 653.587 169.845C647.322 165.669 642.422 159.788 638.885 152.203C635.348 144.575 633.58 135.562 633.58 125.165C633.58 114.852 635.348 105.903 638.885 98.3182C642.422 90.733 647.344 84.8736 653.651 80.7401C659.957 76.6065 667.244 74.5398 675.511 74.5398C681.903 74.5398 686.953 75.6051 690.661 77.7358C694.411 79.8239 697.266 82.2102 699.226 84.8949C701.229 87.5369 702.784 89.7102 703.892 91.4148H705.17V43.0909H720.256V174H705.682V158.915H703.892C702.784 160.705 701.207 162.963 699.162 165.69C697.116 168.375 694.197 170.783 690.405 172.913C686.612 175.001 681.563 176.045 675.256 176.045ZM677.301 162.494C683.352 162.494 688.466 160.918 692.642 157.764C696.818 154.568 699.993 150.158 702.166 144.533C704.339 138.865 705.426 132.324 705.426 124.909C705.426 117.58 704.361 111.166 702.23 105.669C700.099 100.129 696.946 95.8253 692.77 92.7571C688.594 89.6463 683.438 88.0909 677.301 88.0909C670.909 88.0909 665.582 89.7315 661.321 93.0128C657.102 96.2514 653.928 100.662 651.797 106.244C649.709 111.784 648.665 118.006 648.665 124.909C648.665 131.898 649.73 138.247 651.861 143.957C654.034 149.625 657.23 154.142 661.449 157.509C665.71 160.832 670.994 162.494 677.301 162.494Z" fill="white"/>
<path d="M752.024 174V43.0909H767.876V101.386H837.678V43.0909H853.53V174H837.678V115.449H767.876V174H752.024ZM923.107 176.045C914.244 176.045 906.467 173.936 899.776 169.717C893.129 165.499 887.93 159.597 884.18 152.011C880.472 144.426 878.619 135.562 878.619 125.42C878.619 115.193 880.472 106.266 884.18 98.6378C887.93 91.0099 893.129 85.0866 899.776 80.8679C906.467 76.6491 914.244 74.5398 923.107 74.5398C931.971 74.5398 939.727 76.6491 946.374 80.8679C953.065 85.0866 958.263 91.0099 961.971 98.6378C965.721 106.266 967.596 115.193 967.596 125.42C967.596 135.562 965.721 144.426 961.971 152.011C958.263 159.597 953.065 165.499 946.374 169.717C939.727 173.936 931.971 176.045 923.107 176.045ZM923.107 162.494C929.84 162.494 935.38 160.768 939.727 157.317C944.073 153.865 947.29 149.327 949.379 143.702C951.467 138.077 952.511 131.983 952.511 125.42C952.511 118.858 951.467 112.743 949.379 107.075C947.29 101.408 944.073 96.8267 939.727 93.3324C935.38 89.8381 929.84 88.0909 923.107 88.0909C916.374 88.0909 910.835 89.8381 906.488 93.3324C902.141 96.8267 898.924 101.408 896.836 107.075C894.748 112.743 893.704 118.858 893.704 125.42C893.704 131.983 894.748 138.077 896.836 143.702C898.924 149.327 902.141 153.865 906.488 157.317C910.835 160.768 916.374 162.494 923.107 162.494ZM990.623 174V75.8182H1005.2V90.6477H1006.22C1008.01 85.7898 1011.25 81.848 1015.94 78.8224C1020.62 75.7969 1025.91 74.2841 1031.79 74.2841C1032.9 74.2841 1034.28 74.3054 1035.94 74.348C1037.6 74.3906 1038.86 74.4545 1039.71 74.5398V89.8807C1039.2 89.7528 1038.03 89.5611 1036.2 89.3054C1034.41 89.0071 1032.51 88.858 1030.51 88.858C1025.74 88.858 1021.48 89.8594 1017.73 91.8622C1014.02 93.8224 1011.08 96.5497 1008.9 100.044C1006.77 103.496 1005.71 107.437 1005.71 111.869V174H990.623ZM1086.49 176.301C1080.27 176.301 1074.62 175.129 1069.55 172.786C1064.48 170.399 1060.45 166.969 1057.47 162.494C1054.49 157.977 1052.99 152.523 1052.99 146.131C1052.99 140.506 1054.1 135.946 1056.32 132.452C1058.53 128.915 1061.5 126.145 1065.2 124.142C1068.91 122.139 1073 120.648 1077.48 119.668C1081.99 118.645 1086.53 117.835 1091.09 117.239C1097.06 116.472 1101.89 115.896 1105.6 115.513C1109.35 115.087 1112.08 114.384 1113.78 113.403C1115.53 112.423 1116.4 110.719 1116.4 108.29V107.778C1116.4 101.472 1114.68 96.571 1111.23 93.0767C1107.82 89.5824 1102.64 87.8352 1095.69 87.8352C1088.49 87.8352 1082.84 89.4119 1078.75 92.5653C1074.66 95.7187 1071.79 99.0852 1070.12 102.665L1055.81 97.5511C1058.36 91.5852 1061.77 86.9403 1066.03 83.6165C1070.34 80.25 1075.02 77.9062 1080.1 76.5852C1085.21 75.2216 1090.24 74.5398 1095.18 74.5398C1098.33 74.5398 1101.96 74.9233 1106.05 75.6903C1110.18 76.4148 1114.17 77.9276 1118 80.2287C1121.88 82.5298 1125.1 86.0028 1127.65 90.6477C1130.21 95.2926 1131.49 101.514 1131.49 109.312V174H1116.4V160.705H1115.64C1114.61 162.835 1112.91 165.115 1110.52 167.544C1108.14 169.973 1104.96 172.04 1101 173.744C1097.03 175.449 1092.2 176.301 1086.49 176.301ZM1088.79 162.75C1094.75 162.75 1099.78 161.578 1103.87 159.234C1108.01 156.891 1111.12 153.865 1113.21 150.158C1115.34 146.45 1116.4 142.551 1116.4 138.46V124.653C1115.76 125.42 1114.36 126.124 1112.18 126.763C1110.05 127.359 1107.58 127.892 1104.77 128.361C1102 128.787 1099.29 129.17 1096.65 129.511C1094.05 129.81 1091.94 130.065 1090.32 130.278C1086.4 130.79 1082.74 131.621 1079.33 132.771C1075.96 133.879 1073.24 135.562 1071.15 137.821C1069.1 140.037 1068.08 143.062 1068.08 146.898C1068.08 152.139 1070.02 156.102 1073.9 158.787C1077.82 161.429 1082.78 162.75 1088.79 162.75Z" fill="#21759B"/>
<circle cx="638.064" cy="271.064" r="53.0642" fill="#21759B"/>
<path d="M614.672 248.2H625.552C629.52 248.2 632.485 249.117 634.448 250.952C636.411 252.744 637.392 255.581 637.392 259.464C637.392 261.597 636.987 263.56 636.176 265.352C635.408 267.101 634.427 268.381 633.232 269.192C634.896 270.088 636.261 271.432 637.328 273.224C638.437 275.016 638.992 277.064 638.992 279.368C638.992 283.293 638.011 286.557 636.048 289.16C634.128 291.72 630.309 293 624.592 293H614.672V248.2ZM624.336 266.952C626.896 266.952 628.88 266.312 630.288 265.032C631.696 263.709 632.4 261.811 632.4 259.336C632.4 256.904 631.717 255.155 630.352 254.088C628.987 252.979 626.981 252.424 624.336 252.424H620.304V266.952H624.336ZM624.272 288.776C627.387 288.776 629.712 288.051 631.248 286.6C632.827 285.107 633.616 282.76 633.616 279.56C633.616 276.701 632.699 274.611 630.864 273.288C629.029 271.965 626.853 271.304 624.336 271.304H620.304V288.776H624.272ZM644.773 299.4H646.757C647.909 299.4 648.954 298.845 649.893 297.736C650.832 296.669 651.301 295.069 651.301 292.936L642.405 259.72H647.717L653.285 286.728L657.765 259.72H662.821L655.013 296.84C654.117 301.107 651.642 303.24 647.589 303.24H644.773V299.4Z" fill="white"/>
<path d="M1119.14 326C1113.23 326 1108.46 325.37 1104.85 324.11C1101.23 322.83 1098.47 321.082 1096.58 318.867C1094.69 316.631 1093.42 314.061 1092.77 311.155H1112.25C1113.7 313.228 1115.99 314.264 1119.14 314.264C1122.29 314.264 1124.59 313.228 1126.03 311.155C1126.15 310.952 1126.21 310.769 1126.21 310.606C1126.21 310.057 1125.48 309.651 1124.02 309.387C1122.58 309.102 1120.41 308.889 1117.53 308.747C1113.89 308.584 1110.07 308.198 1106.06 307.588C1097.14 306.206 1092.68 302.62 1092.68 296.828C1092.68 296.34 1092.71 295.822 1092.77 295.273C1093.42 292.367 1094.69 289.807 1096.58 287.592C1098.47 285.356 1101.23 283.609 1104.85 282.349C1108.46 281.068 1113.23 280.428 1119.14 280.428C1125.06 280.428 1129.82 281.068 1133.44 282.349C1137.06 283.609 1139.81 285.356 1141.7 287.592C1143.59 289.807 1144.86 292.367 1145.51 295.273H1126.03C1124.59 293.2 1122.29 292.164 1119.14 292.164C1115.99 292.164 1113.7 293.2 1112.25 295.273C1112.15 295.436 1112.1 295.588 1112.1 295.731C1112.1 296.218 1112.79 296.584 1114.17 296.828C1115.58 297.051 1117.63 297.244 1120.33 297.407C1123.05 297.57 1125.95 297.834 1129.02 298.2C1132.09 298.565 1134.95 299.206 1137.61 300.12C1140.3 301.014 1142.39 302.345 1143.89 304.113C1145.07 305.475 1145.66 307.202 1145.66 309.295C1145.66 309.885 1145.61 310.504 1145.51 311.155C1144.86 314.061 1143.59 316.631 1141.7 318.867C1139.81 321.082 1137.06 322.83 1133.44 324.11C1129.82 325.37 1125.06 326 1119.14 326Z" fill="white"/>
<path d="M1059.43 326C1048.76 326 1041.25 323.785 1036.9 319.355C1033.24 315.636 1031.41 310.261 1031.41 303.229V281.343H1049.76V303.229C1049.76 306.278 1050.28 308.686 1051.32 310.454C1052.8 312.994 1055.5 314.264 1059.43 314.264C1063.39 314.264 1066.1 312.994 1067.56 310.454C1068.6 308.625 1069.12 306.217 1069.12 303.229V281.343H1087.47V303.473C1087.47 310.342 1085.65 315.636 1082.01 319.355C1077.64 323.785 1070.11 326 1059.43 326Z" fill="white"/>
<path d="M996.266 326C985.455 326 977.499 323.775 972.398 319.324C967.887 315.402 965.631 310.037 965.631 303.23C965.631 296.422 967.887 291.047 972.398 287.104C977.499 282.674 985.455 280.459 996.266 280.459C1002.61 280.459 1007.85 281.191 1011.99 282.654C1016.14 284.097 1019.36 286.078 1021.66 288.598C1023.95 291.118 1025.48 294.003 1026.23 297.255H1006.93C1005 293.861 1001.45 292.164 996.266 292.164C991.836 292.164 988.574 293.445 986.481 296.005C984.815 298.037 983.981 300.445 983.981 303.23C983.981 306.014 984.815 308.422 986.481 310.454C988.574 313.014 991.836 314.295 996.266 314.295C1001.45 314.295 1005 312.588 1006.93 309.174H1026.23C1025.48 312.445 1023.95 315.341 1021.66 317.861C1019.36 320.381 1016.14 322.373 1011.99 323.836C1007.85 325.279 1002.61 326 996.266 326Z" fill="white"/>
<path d="M960.723 325.055H943.379C942.586 323.958 942.027 322.556 941.702 320.848C941.418 319.528 940.991 318.237 940.422 316.977C939.853 315.697 938.867 314.64 937.465 313.807C936.083 312.953 934.021 312.496 931.277 312.435H919.358V325.055H901.008V281.312H930.85C937.983 281.312 943.734 281.851 948.103 282.928C952.493 283.985 955.694 285.661 957.706 287.958C959.717 290.234 960.723 293.211 960.723 296.889C960.723 299.958 960.022 302.539 958.62 304.632C957.238 306.725 955.043 308.381 952.036 309.6C954.942 310.799 956.822 312.242 957.675 313.929C958.549 315.595 959.087 317.434 959.291 319.446C959.494 321.235 959.971 323.104 960.723 325.055ZM919.358 301.644L929.844 301.614C932.771 301.614 935.077 301.482 936.764 301.218C938.451 300.953 939.69 300.598 940.483 300.151C941.296 299.683 941.814 299.175 942.037 298.627C942.261 298.058 942.373 297.478 942.373 296.889C942.373 296.3 942.261 295.721 942.037 295.152C941.814 294.583 941.296 294.075 940.483 293.627C939.69 293.16 938.451 292.794 936.764 292.53C935.077 292.266 932.771 292.134 929.844 292.134H919.358V301.644Z" fill="white"/>
<path d="M895.643 325.055H877.048L872.933 317.891H845.346L841.231 325.055H822.637L850.62 281.343H867.66L895.643 325.055ZM866.745 307.07L859.155 293.81L851.534 307.07H866.745Z" fill="white"/>
<path d="M817.302 325.055H798.952V297.163L782.552 325.055H768.865L752.496 297.163V325.055H734.146V281.312H755.941L775.724 312.557L795.477 281.312H817.302V325.055Z" fill="white"/>
<path d="M888.022 262.626H869.672V241.898L845.804 218.884H866.136L878.847 231.961L891.528 218.884H911.86L888.022 241.898V262.626Z" fill="white"/>
<path d="M820.198 263.572C809.386 263.572 801.43 261.346 796.33 256.896C791.818 252.953 789.562 247.578 789.562 240.771C789.562 233.983 791.818 228.618 796.33 224.676C801.43 220.225 809.386 218 820.198 218C831.009 218 838.965 220.225 844.065 224.676C848.577 228.618 850.833 233.983 850.833 240.771C850.833 247.578 848.577 252.953 844.065 256.896C838.965 261.346 831.009 263.572 820.198 263.572ZM820.198 251.836C824.628 251.836 827.879 250.566 829.952 248.025C831.618 245.973 832.452 243.555 832.452 240.771C832.452 237.986 831.618 235.578 829.952 233.546C827.879 230.986 824.628 229.705 820.198 229.705C815.767 229.705 812.506 230.986 810.413 233.546C808.746 235.578 807.913 237.986 807.913 240.771C807.913 243.555 808.746 245.973 810.413 248.025C812.506 250.566 815.767 251.836 820.198 251.836Z" fill="white"/>
<path d="M758.166 263.572C752.252 263.572 747.487 262.942 743.87 261.682C740.252 260.401 737.499 258.654 735.609 256.439C733.719 254.203 732.449 251.633 731.798 248.727H751.277C752.72 250.799 755.016 251.836 758.166 251.836C761.316 251.836 763.612 250.799 765.055 248.727C765.177 248.523 765.238 248.34 765.238 248.178C765.238 247.629 764.506 247.223 763.043 246.959C761.6 246.674 759.436 246.461 756.55 246.318C752.913 246.156 749.092 245.77 745.089 245.16C736.168 243.778 731.707 240.191 731.707 234.4C731.707 233.912 731.738 233.394 731.798 232.845C732.449 229.939 733.719 227.378 735.609 225.163C737.499 222.928 740.252 221.18 743.87 219.92C747.487 218.64 752.252 218 758.166 218C764.08 218 768.845 218.64 772.462 219.92C776.08 221.18 778.833 222.928 780.723 225.163C782.613 227.378 783.883 229.939 784.533 232.845H765.055C763.612 230.772 761.316 229.736 758.166 229.736C755.016 229.736 752.72 230.772 751.277 232.845C751.175 233.008 751.124 233.16 751.124 233.302C751.124 233.79 751.815 234.156 753.197 234.4C754.599 234.623 756.652 234.816 759.355 234.979C762.078 235.141 764.974 235.406 768.042 235.771C771.111 236.137 773.976 236.777 776.638 237.692C779.321 238.586 781.414 239.917 782.918 241.685C784.097 243.047 784.686 244.774 784.686 246.867C784.686 247.456 784.635 248.076 784.533 248.727C783.883 251.633 782.613 254.203 780.723 256.439C778.833 258.654 776.08 260.401 772.462 261.682C768.845 262.942 764.08 263.572 758.166 263.572Z" fill="white"/>
</svg>
